<?xml version="1.0" encoding="UTF-8"?> <svg xmlns="http://www.w3.org/2000/svg" width="512" height="512" viewBox="0 0 512 512" fill="none"><rect width="512" height="512" rx="256" fill="white"></rect><g clip-path="url(#clip0_4011_11528)"><path fill-rule="evenodd" clip-rule="evenodd" d="M375.745 291.873H409.481C395.54 327.339 361.742 352.865 321.866 354.598L189.859 354.939C135.26 354.939 91 310.6 91 255.9C91 201.199 135.26 157 189.859 157H323.974C363.441 159.558 396.654 185.441 410.011 220.988H376.581C364.659 200.734 342.663 187.104 317.54 187.104C279.765 187.104 249.035 217.891 249.035 255.737C249.035 293.583 279.765 324.369 317.54 324.369C342.086 324.369 363.646 311.36 375.745 291.873ZM605.523 351.851H573.818V160.204H605.523V351.851ZM728.657 272.827C726.56 252.352 714.507 236.334 693.543 236.334C674.151 236.334 660.527 251.301 657.644 272.827H728.657ZM697.734 329.008C713.195 329.008 724.203 323.233 735.211 312.468L753.815 329.008C740.713 344.758 722.632 355 697.211 355C657.118 355 626.199 325.857 626.199 282.805C626.199 242.897 654.236 210.343 693.806 210.343C737.827 210.343 760.102 244.998 760.102 285.166C760.102 287.686 759.905 290.006 759.679 292.65L759.676 292.687C759.644 293.061 759.612 293.441 759.58 293.83H657.908C661.576 316.406 677.3 329.008 697.734 329.008ZM896.703 282.544C896.703 258.126 912.95 238.174 938.367 238.174C963.262 238.174 980.817 258.389 980.817 283.067C980.817 307.481 964.57 327.433 938.89 327.433C914.258 327.433 896.703 307.221 896.703 282.544ZM864.995 283.067C864.995 322.707 896.177 354.998 938.367 354.998C981.08 354.998 1012.52 322.184 1012.52 282.544C1012.52 242.636 981.343 210.345 938.89 210.345C896.44 210.345 864.995 243.163 864.995 283.067ZM779.91 351.848H811.619V299.082C811.619 262.326 831.008 244.211 858.785 244.211H860.623V210.61C836.25 209.559 820.267 223.732 811.619 244.475V213.234H779.91V351.848ZM516.035 293.042C507.914 289.89 496.647 287.529 484.327 287.529C464.416 287.529 452.622 295.666 452.622 309.842V310.369C452.622 323.495 464.416 330.845 479.351 330.845C500.315 330.845 516.035 319.029 516.035 301.706V293.042ZM515.25 351.847V334.783C505.817 346.071 491.404 354.735 470.436 354.735C444.238 354.735 421.177 339.772 421.177 311.943V311.42C421.177 281.49 445.02 266.79 477.25 266.79C494.023 266.79 504.768 269.151 515.513 272.566V269.151C515.513 249.986 503.46 239.485 481.445 239.485C465.983 239.485 454.457 242.9 441.878 248.149L433.234 222.684C448.428 215.858 463.363 211.132 485.902 211.132C526.78 211.132 546.695 232.658 546.695 269.674V351.847H515.25Z" fill="url(#paint0_linear_4011_11528)"></path></g><defs><linearGradient id="paint0_linear_4011_11528" x1="1012.52" y1="256" x2="91" y2="256" gradientUnits="userSpaceOnUse"><stop stop-color="#003A70"></stop><stop offset="1" stop-color="#279989"></stop></linearGradient><clipPath id="clip0_4011_11528"><rect width="330" height="198" fill="white" transform="translate(91 157)"></rect></clipPath></defs></svg> 